<?xml version="1.0" standalone="no"?>
<!DOCTYPE svg PUBLIC "-//W3C//DTD SVG 20010904//EN"
 "http://www.w3.org/TR/2001/REC-SVG-20010904/DTD/svg10.dtd">
<svg version="1.0" xmlns="http://www.w3.org/2000/svg"
 width="425.000000pt" height="425.000000pt" viewBox="0 0 425.000000 425.000000"
 preserveAspectRatio="xMidYMid meet">
<metadata>
Created by potrace 1.11, written by Peter Selinger 2001-2013
</metadata>
<g transform="translate(0.000000,425.000000) scale(0.100000,-0.100000)"
fill="#000000" stroke="none">
<path d="M2705 3866 c-108 -18 -194 -49 -290 -102 -77 -44 -190 -141 -229
-198 -17 -26 -23 -28 -63 -23 -29 3 -54 13 -71 30 -47 45 -225 156 -300 187
-205 86 -498 103 -714 41 -209 -60 -432 -236 -512 -403 -74 -155 -71 -125 -70
-793 l0 -600 28 -105 c15 -58 31 -109 35 -115 5 -5 14 -28 21 -50 7 -22 18
-47 25 -55 8 -8 17 -28 21 -45 4 -16 20 -51 36 -78 15 -26 28 -52 28 -56 0 -4
13 -27 30 -49 16 -23 30 -46 30 -51 0 -6 18 -29 40 -52 22 -23 42 -51 46 -62
3 -10 20 -33 36 -51 17 -17 41 -47 54 -66 12 -19 41 -55 63 -80 22 -25 41 -48
41 -52 0 -5 5 -8 11 -8 6 0 46 -35 88 -78 99 -99 159 -151 165 -144 3 2 10 -7
15 -21 5 -14 19 -28 31 -32 13 -4 19 -12 16 -21 -3 -8 -1 -14 4 -14 6 0 10 6
10 13 1 7 6 5 14 -6 7 -9 18 -17 25 -17 6 0 11 -4 11 -10 0 -5 5 -10 10 -10 6
0 22 -12 36 -28 14 -15 23 -21 19 -14 -4 7 11 1 34 -15 22 -15 40 -34 41 -41
0 -7 4 -11 9 -8 5 3 12 -1 15 -10 3 -8 10 -12 16 -9 5 3 10 1 10 -4 0 -6 5
-11 11 -11 6 0 17 -7 25 -15 9 -8 24 -15 34 -15 10 0 20 -7 24 -15 3 -8 15
-15 26 -15 11 0 20 -6 20 -14 0 -9 7 -12 20 -9 14 4 20 0 20 -11 0 -9 5 -16
11 -16 6 0 22 -9 36 -19 13 -11 30 -18 37 -15 7 3 21 -4 31 -16 10 -11 27 -20
37 -20 11 0 38 -10 61 -23 41 -23 149 -55 217 -63 46 -6 178 14 205 32 12 8
25 11 29 7 4 -4 11 -1 15 6 5 7 20 14 35 14 14 1 26 8 26 15 0 6 9 12 21 12
11 0 17 5 14 10 -3 6 3 10 14 10 12 0 21 5 21 10 0 6 11 15 25 20 14 5 25 14
25 20 0 5 5 10 11 10 7 0 25 13 41 30 15 16 35 30 44 30 8 0 12 5 9 10 -3 6
-2 10 2 10 10 0 35 18 86 62 18 15 38 26 45 23 7 -2 12 4 12 15 0 11 5 20 10
20 6 0 20 9 32 20 12 11 27 20 33 20 6 0 18 11 25 25 7 14 17 25 22 25 4 0 8
7 8 15 0 8 8 15 18 15 10 0 25 11 32 25 13 25 96 95 112 95 4 0 8 6 8 13 0 8
27 42 60 75 33 34 60 66 60 70 0 5 10 17 23 29 34 31 77 82 77 92 0 6 6 14 13
18 7 4 20 19 28 33 9 14 35 45 57 69 23 25 39 48 36 52 -2 4 3 10 12 13 8 3
13 10 10 14 -3 5 3 15 12 24 27 24 51 56 46 61 -2 2 2 10 11 17 8 7 15 18 15
25 0 7 12 25 27 41 15 16 28 33 28 37 0 4 6 11 13 16 7 4 12 12 10 17 -1 5 18
50 43 99 45 87 53 109 100 260 26 83 27 91 16 697 -6 371 -11 465 -26 552 -19
103 -56 195 -102 256 -51 65 -162 167 -239 219 -210 140 -548 216 -785 177z"/>
</g>
</svg>
